# xmcd
#
# Track frame offsets:
#	150
#	19854
#	37581
#	57598
#	76073
#	96747
#	114387
#	134201
#	150876
#
# Disc length: 2291 seconds
#
# Revision: 1
# Processed by: cddbd v1.5.1PL0 Copyright (c) Steve Scherf et al.
# Submitted via: CDex 1.50Beta5
#
DISCID=6c08f109
DTITLE=Ackee and Saltfish - Nah Tek Back「男に二言無し」
DYEAR=1900
DGENRE=Pop
TTITLE0=Com Ina This
TTITLE1=All A De Gal Den
TTITLE2=Jah Inna Yo Chest
TTITLE3=わかるか?
TTITLE4=Finga Pon De Trigga
TTITLE5=風まかせ
TTITLE6=O.Jap.
TTITLE7=誰が向こう見ず
TTITLE8=Burn Down Babylon
EXTD=
EXTT0=
EXTT1=
EXTT2=
EXTT3=
EXTT4=
EXTT5=
EXTT6=
EXTT7=
EXTT8=
PLAYORDER=
